<?xml version="1.0" standalone="no"?>
<!DOCTYPE svg PUBLIC "-//W3C//DTD SVG 20010904//EN"
 "http://www.w3.org/TR/2001/REC-SVG-20010904/DTD/svg10.dtd">
<svg version="1.0" xmlns="http://www.w3.org/2000/svg"
 width="1024.000000pt" height="1024.000000pt" viewBox="0 0 1024.000000 1024.000000"
 preserveAspectRatio="xMidYMid meet">

<g transform="translate(0.000000,1024.000000) scale(0.100000,-0.100000)"
fill="#10b981" stroke="none">
<path d="M5115 8479 c-203 -13 -385 -45 -554 -95 -372 -111 -660 -271 -976
-543 -326 -281 -596 -648 -789 -1075 -20 -43 -36 -81 -36 -85 0 -3 72 -5 161
-5 l161 1 49 104 c123 256 332 546 522 726 436 410 951 651 1454 681 587 35
1089 -94 1543 -395 407 -271 723 -656 915 -1118 168 -404 218 -912 135 -1381
-85 -483 -341 -945 -729 -1317 -394 -377 -884 -614 -1405 -678 -144 -17 -488
-7 -641 20 -251 45 -567 157 -765 273 -274 161 -331 200 -525 364 -124 105
-289 268 -335 332 -17 24 -37 45 -45 48 -7 3 -79 2 -160 -3 l-146 -8 61 -89
c168 -246 404 -488 665 -681 392 -289 798 -462 1250 -531 94 -15 177 -18 385
-18 297 0 404 13 657 79 621 163 1193 563 1563 1095 201 288 342 585 413 871
54 213 68 326 74 585 14 573 -72 964 -309 1399 -83 153 -209 346 -305 465
-132 166 -367 387 -567 536 -65 48 -239 150 -355 208 -102 51 -238 102 -248
92 -2 -2 5 -7 17 -11 12 -4 33 -17 47 -28 l25 -22 -24 -7 c-23 -7 -23 -7 2 -6
29 2 70 -10 70 -21 0 -4 16 -8 36 -9 25 -2 34 1 28 9 -9 14 12 4 40 -20 10 -9
20 -15 22 -13 17 10 14 -2 -4 -16 -22 -17 -22 -18 -2 -19 18 -2 61 -33 45 -33
-3 0 -49 20 -103 44 -53 25 -142 61 -197 80 -113 40 -369 102 -460 111 -33 4
-118 15 -190 25 -71 10 -182 21 -246 25 -64 4 -122 11 -130 16 -11 7 -10 9 4
9 10 0 16 4 12 9 -5 8 32 14 160 24 22 2 0 4 -50 4 -49 0 -148 -4 -220 -8z
m1560 -414 c19 -15 18 -15 -12 -1 -17 9 -35 21 -39 27 -8 13 21 -1 51 -26z
m499 -391 c3 -8 10 -13 14 -10 5 3 9 -1 9 -9 0 -19 1 -19 -27 10 -13 14 -19
25 -13 25 6 0 14 -7 17 -16z m546 -758 c0 -12 -5 -7 -19 24 -11 24 -11 24 3 6
9 -11 16 -24 16 -30z m81 -182 c5 -15 8 -29 5 -31 -2 -2 -8 10 -14 26 -13 38
-5 41 9 5z m53 -154 c5 -20 3 -19 -8 5 -7 17 -16 41 -20 55 -5 20 -3 19 8 -5
7 -16 16 -41 20 -55z m100 -365 c11 -64 -10 -19 -28 62 -9 40 -16 78 -15 85 1
18 34 -97 43 -147z"/>
<path d="M5129 7959 c-195 -13 -467 -81 -644 -162 -111 -51 -309 -164 -393
-224 -152 -108 -377 -322 -494 -468 -61 -76 -189 -278 -237 -374 l-31 -60 69
1 c38 0 73 -2 78 -5 5 -3 23 22 41 57 17 34 45 77 61 96 l29 35 29 -23 c67
-53 171 -125 201 -140 l34 -17 44 47 c24 26 44 53 44 60 0 16 -171 168 -224
199 l-36 21 16 31 c9 18 73 89 142 159 l125 127 88 -90 87 -91 28 16 c16 8 40
24 54 35 l25 20 -30 43 c-17 24 -50 71 -74 106 l-44 62 24 26 c24 26 187 129
193 123 2 -2 30 -56 61 -119 63 -126 102 -188 148 -237 36 -38 50 -40 95 -13
43 26 42 58 -4 135 -20 33 -63 118 -94 188 l-58 128 88 44 c48 24 108 49 132
54 60 14 150 22 144 13 -5 -8 10 -154 19 -183 8 -23 26 -24 82 -3 50 19 50 21
29 149 -8 44 -11 84 -7 88 10 10 239 40 256 33 10 -4 14 -43 17 -160 2 -85 6
-157 9 -161 13 -12 138 -10 150 2 9 9 12 52 11 150 -2 76 2 144 7 152 7 11 27
12 121 2 140 -15 150 -20 150 -71 0 -48 11 -50 100 -19 40 14 71 18 93 14 101
-21 277 -85 310 -114 12 -10 16 -23 12 -39 -6 -26 13 -64 48 -94 28 -25 32
-23 56 27 25 53 14 56 164 -43 53 -36 97 -70 97 -77 0 -12 -50 -83 -102 -143
-15 -18 -28 -39 -28 -46 0 -17 80 -96 97 -96 7 0 39 35 71 78 94 123 75 125
216 -19 67 -68 128 -139 135 -157 17 -40 18 -39 -154 -180 -64 -53 -124 -109
-133 -123 -14 -25 -14 -30 5 -65 10 -21 31 -46 44 -56 37 -28 67 -12 168 85
47 46 107 100 133 120 l47 37 47 -72 c103 -158 157 -325 119 -367 -12 -14 -55
-167 -55 -198 0 -5 52 7 92 22 30 12 38 12 47 1 19 -23 59 -198 63 -272 l3
-69 -162 -6 c-112 -3 -166 -9 -177 -18 -21 -18 -21 -99 0 -129 15 -21 21 -22
176 -22 l161 0 -6 -116 c-3 -64 -10 -121 -16 -127 -7 -7 -39 -8 -101 -1 -50 5
-93 7 -96 5 -2 -2 -4 -30 -4 -61 l0 -56 80 -13 c116 -19 114 -15 86 -144 -12
-59 -28 -113 -34 -119 -8 -8 -21 -7 -49 5 -52 22 -112 37 -149 37 -27 0 -32
-4 -38 -31 -12 -61 -10 -64 72 -97 125 -51 121 -37 47 -188 -35 -72 -70 -134
-78 -137 -16 -6 -138 66 -246 146 -80 60 -108 61 -150 8 -54 -68 -37 -101 77
-152 65 -29 202 -132 202 -151 0 -6 -26 -47 -57 -91 -65 -94 -185 -222 -227
-244 -28 -14 -30 -14 -52 14 -13 15 -37 49 -54 74 -17 27 -44 52 -62 60 -29
12 -32 11 -59 -19 -16 -18 -29 -39 -29 -48 0 -8 22 -44 50 -80 61 -79 73 -101
66 -119 -3 -8 -45 -40 -93 -71 -48 -32 -94 -62 -100 -67 -9 -7 -27 21 -67 104
-31 63 -68 129 -83 147 -26 31 -31 33 -70 26 -24 -3 -50 -12 -60 -19 -19 -14
-15 -28 66 -213 23 -51 41 -99 41 -107 0 -21 -204 -117 -261 -123 -56 -5 -58
-1 -66 117 l-6 83 -42 -5 c-55 -8 -152 -44 -158 -60 -2 -7 2 -54 10 -106 13
-78 13 -95 1 -107 -15 -15 -126 -34 -205 -34 l-53 0 0 159 c0 124 -3 161 -14
170 -9 7 -41 11 -83 9 l-68 -3 -3 -167 -2 -168 -73 0 c-39 0 -96 3 -126 7
l-53 6 6 61 c4 34 9 82 13 109 l6 47 -50 0 c-56 0 -57 -2 -83 -102 -7 -27 -18
-48 -25 -48 -6 0 -33 7 -59 16 l-48 16 -69 -47 c-38 -26 -69 -51 -69 -55 0
-10 79 -44 150 -64 286 -82 686 -97 959 -36 125 28 373 111 483 163 314 147
590 356 776 587 312 387 479 773 523 1207 7 64 9 197 6 328 -5 196 -9 236 -37
370 -95 449 -282 801 -591 1115 -159 161 -402 331 -616 431 -352 165 -730 234
-1134 208z"/>
<path d="M5679 7492 c-119 -40 -214 -124 -272 -242 -30 -61 -32 -70 -32 -180
0 -114 1 -117 38 -194 82 -165 199 -241 373 -241 84 0 95 2 167 38 306 151
362 544 107 746 -103 81 -262 112 -381 73z m269 -133 c147 -73 195 -213 131
-384 -27 -73 -39 -77 -32 -13 7 72 -27 185 -70 235 -37 42 -114 94 -169 114
-41 14 -49 37 -22 63 25 26 93 20 162 -15z"/>
<path d="M1706 7359 c-15 -12 -26 -30 -26 -44 0 -38 35 -55 112 -55 56 0 72 4
89 21 15 15 19 28 14 47 -11 46 -23 52 -95 52 -53 0 -73 -4 -94 -21z"/>
<path d="M2080 7355 c-20 -21 -22 -28 -12 -50 24 -51 52 -55 421 -55 l340 0
31 46 c31 43 31 46 14 65 -16 18 -34 19 -394 19 l-377 0 -23 -25z"/>
<path d="M2006 7069 c-34 -26 -32 -64 4 -91 23 -17 49 -19 305 -21 154 -1 296
2 317 6 48 10 67 54 38 89 -23 29 -103 36 -416 37 -211 1 -223 0 -248 -20z"/>
<path d="M4155 6581 c-295 -273 -575 -531 -713 -656 -68 -60 -118 -111 -114
-113 5 -1 56 17 113 41 57 25 167 70 244 102 129 53 347 156 370 175 6 5 75
41 154 80 l144 72 327 1 c321 0 328 0 358 -22 38 -27 72 -80 72 -114 0 -18
-10 -31 -34 -47 -34 -20 -44 -21 -380 -19 -398 1 -348 12 -513 -113 -95 -71
-110 -94 -70 -102 12 -3 168 -7 347 -9 360 -4 352 -3 430 -73 41 -37 60 -89
43 -118 -8 -15 -122 -17 -1274 -20 -695 -2 -1306 -7 -1357 -11 -82 -7 -96 -11
-122 -35 -25 -23 -30 -36 -30 -72 0 -33 6 -50 21 -64 20 -18 58 -19 1133 -25
611 -4 1134 -10 1161 -14 91 -14 162 -71 179 -145 14 -58 84 -54 -1116 -57
l-1103 -3 -32 -35 c-46 -48 -46 -102 -2 -139 17 -14 43 -26 57 -26 15 -1 63
-2 107 -4 44 -2 312 -4 595 -5 718 -1 1206 -15 1253 -34 20 -9 57 -36 82 -61
38 -38 45 -52 45 -84 0 -72 1 -72 -305 -60 -255 10 -656 7 -1481 -10 -370 -8
-371 -8 -410 -68 -16 -23 -16 -28 -1 -59 34 -72 12 -70 682 -71 330 -1 657 -2
727 -3 l127 -1 36 -32 c38 -33 85 -114 85 -147 0 -36 -29 -54 -74 -46 -109 18
-220 24 -305 19 l-93 -7 98 -94 c174 -166 285 -263 304 -263 10 0 23 7 30 15
7 8 56 44 109 80 151 103 281 201 325 244 50 49 187 157 321 253 84 59 216
160 249 189 4 4 -36 7 -89 8 -117 0 -128 3 -141 39 -17 45 11 91 71 114 62 24
221 33 427 23 l156 -7 -10 -32 c-12 -33 -375 -403 -573 -582 -266 -240 -608
-556 -622 -574 -18 -22 -16 -40 6 -40 19 0 426 203 876 437 273 142 392 208
580 318 77 45 178 104 225 130 104 60 181 135 198 191 21 71 15 172 -13 231
-53 114 -183 199 -350 228 -70 12 -389 34 -566 39 l-25 1 19 34 c13 22 36 40
66 52 104 43 167 90 329 242 62 59 118 107 123 107 5 0 78 -66 162 -147 295
-286 318 -308 330 -308 25 0 422 423 602 641 167 203 304 389 294 399 -4 3
-119 -59 -304 -163 -44 -25 -132 -78 -195 -119 -98 -64 -360 -203 -381 -203
-4 0 -22 24 -40 53 -19 28 -58 81 -87 115 -30 35 -74 98 -99 140 -122 208
-210 298 -380 392 -128 72 -185 93 -343 130 -74 17 -153 35 -175 40 -66 16
-383 49 -610 64 l-60 4 -200 -187z m1174 19 c24 -11 50 -20 58 -20 24 0 123
-51 123 -63 0 -6 26 -36 58 -65 l57 -55 -81 54 c-127 84 -224 143 -258 156
-17 6 -24 12 -16 12 8 0 35 -8 59 -19z m322 -217 c13 -16 12 -17 -3 -4 -10 7
-18 15 -18 17 0 8 8 3 21 -13z m81 -85 c31 -45 14 -32 -28 20 -21 26 -28 38
-15 27 13 -11 32 -32 43 -47z m79 -138 c14 -62 7 -57 -18 12 -15 44 -17 56 -6
45 8 -8 19 -33 24 -57z m69 -1076 c0 -2 -9 0 -20 6 -11 6 -20 13 -20 16 0 2 9
0 20 -6 11 -6 20 -13 20 -16z"/>
<path d="M8185 6443 c3 -37 13 -120 20 -183 8 -63 19 -207 25 -319 5 -112 11
-205 13 -206 1 -1 22 -9 47 -18 59 -22 66 -28 74 -55 5 -14 3 -23 -6 -26 -7
-2 -39 -12 -70 -22 -32 -9 -58 -22 -58 -28 -1 -6 -5 -56 -11 -111 -5 -55 -13
-199 -18 -320 -5 -121 -12 -232 -16 -247 -5 -19 39 19 167 145 162 162 469
451 613 579 l64 57 -192 183 c-227 216 -554 533 -615 596 l-44 44 7 -69z"/>
<path d="M1545 6459 c-44 -39 -45 -69 -4 -103 28 -24 38 -26 118 -26 75 0 92
3 116 22 24 19 27 26 22 62 -9 62 -33 76 -133 76 -79 0 -85 -2 -119 -31z"/>
<path d="M2127 6480 c-93 -4 -111 -8 -123 -24 -23 -32 -17 -79 12 -107 24 -23
33 -24 232 -31 114 -5 457 -12 762 -16 425 -6 560 -5 576 4 11 7 58 50 105 95
l84 84 -770 0 c-423 0 -819 -2 -878 -5z"/>
<path d="M3110 6079 c-146 -5 -389 -14 -540 -20 -151 -6 -384 -10 -518 -9
-241 3 -243 2 -267 -20 -35 -33 -35 -91 1 -119 24 -19 40 -21 158 -21 72 0
168 5 214 12 74 10 87 9 120 -7 30 -15 76 -19 257 -26 121 -4 301 -8 400 -8
l180 -1 125 106 c128 109 147 125 140 122 -3 -1 -124 -5 -270 -9z"/>
<path d="M1209 5607 c-18 -12 -40 -34 -48 -49 -13 -23 -13 -30 -1 -54 25 -47
66 -64 150 -64 101 1 150 13 178 46 29 34 24 75 -15 116 -26 27 -30 28 -128
28 -90 0 -106 -3 -136 -23z"/>
<path d="M1891 5174 c-41 -34 -42 -75 -2 -115 27 -27 35 -29 104 -29 71 0 77
2 106 31 34 34 36 42 20 88 -15 43 -35 51 -123 51 -66 0 -78 -3 -105 -26z"/>
<path d="M1220 4739 c-71 -29 -94 -99 -44 -138 22 -17 41 -21 105 -21 68 0 81
3 99 22 39 42 15 131 -40 142 -45 8 -90 7 -120 -5z"/>
<path d="M1634 4714 c-19 -19 -34 -42 -34 -50 0 -7 13 -28 29 -46 l29 -33 140
0 c135 0 141 1 166 24 35 33 34 74 -3 112 l-29 29 -133 0 -132 0 -33 -36z"/>
<path d="M1720 4280 c-69 -16 -94 -90 -44 -129 21 -16 41 -21 91 -21 58 0 67
3 94 30 32 32 33 50 3 98 -10 16 -24 22 -48 22 -19 0 -40 2 -48 4 -7 2 -29 0
-48 -4z"/>
<path d="M2116 4259 c-14 -17 -26 -41 -26 -55 0 -28 30 -61 62 -69 13 -3 171
-4 351 -3 l329 3 -51 78 -51 77 -294 0 -294 0 -26 -31z"/>
<path d="M2878 3953 c-21 -5 -21 -5 -9 -36 13 -33 64 -53 96 -39 29 13 31 29
9 60 -15 22 -50 27 -96 15z"/>
<path d="M1743 3703 c-29 -6 -65 -51 -61 -76 2 -11 16 -29 31 -41 28 -21 30
-21 730 -17 443 2 709 7 722 13 29 15 55 50 55 74 0 50 17 49 -744 50 -391 1
-721 0 -733 -3z"/>
<path d="M2993 3353 l-462 -3 -20 -26 c-28 -35 -26 -55 5 -85 l26 -24 516 0
c284 0 534 4 555 8 21 4 50 20 66 34 l28 26 -44 39 c-44 38 -44 38 -126 36
-45 -2 -290 -4 -544 -5z"/>
</g>
</svg>
